<svg id="erKH71O6Vve1" xmlns="http://www.w3.org/2000/svg" xmlns:xlink="http://www.w3.org/1999/xlink" viewBox="51 22 156 129" shape-rendering="geometricPrecision" text-rendering="geometricPrecision"><defs><radialGradient id="erKH71O6Vve4-fill" cx="0" cy="0" r="0.5" spreadMethod="pad" gradientUnits="objectBoundingBox" gradientTransform="translate(0.5 0.5)"><stop id="erKH71O6Vve4-fill-0" offset="51%" stop-color="rgba(11,110,79,0.95)"/><stop id="erKH71O6Vve4-fill-1" offset="97%" stop-color="#1b5859"/></radialGradient><radialGradient id="erKH71O6Vve5-fill" cx="0" cy="0" r="0.5" spreadMethod="pad" gradientUnits="objectBoundingBox" gradientTransform="translate(0.5 0.5)"><stop id="erKH71O6Vve5-fill-0" offset="0%" stop-color="#a1c181"/><stop id="erKH71O6Vve5-fill-1" offset="99%" stop-color="#04a777"/></radialGradient><radialGradient id="erKH71O6Vve7-fill" cx="0" cy="0" r="0.5" spreadMethod="pad" gradientUnits="objectBoundingBox" gradientTransform="translate(0.5 0.5)"><stop id="erKH71O6Vve7-fill-0" offset="51%" stop-color="rgba(11,110,79,0.95)"/><stop id="erKH71O6Vve7-fill-1" offset="97%" stop-color="#1b5859"/></radialGradient><radialGradient id="erKH71O6Vve8-fill" cx="0" cy="0" r="0.5" spreadMethod="pad" gradientUnits="objectBoundingBox" gradientTransform="translate(0.5 0.5)"><stop id="erKH71O6Vve8-fill-0" offset="0%" stop-color="#a1c181"/><stop id="erKH71O6Vve8-fill-1" offset="99%" stop-color="#04a777"/></radialGradient><radialGradient id="erKH71O6Vve11-fill" cx="0" cy="0" r="0.5" spreadMethod="pad" gradientUnits="objectBoundingBox" gradientTransform="translate(0.5 0.5)"><stop id="erKH71O6Vve11-fill-0" offset="51%" stop-color="rgba(11,110,79,0.95)"/><stop id="erKH71O6Vve11-fill-1" offset="97%" stop-color="#1b5859"/></radialGradient><radialGradient id="erKH71O6Vve12-fill" cx="0" cy="0" r="0.5" spreadMethod="pad" gradientUnits="objectBoundingBox" gradientTransform="translate(0.5 0.5)"><stop id="erKH71O6Vve12-fill-0" offset="0%" stop-color="#a1c181"/><stop id="erKH71O6Vve12-fill-1" offset="99%" stop-color="#04a777"/></radialGradient><radialGradient id="erKH71O6Vve14-fill" cx="0" cy="0" r="0.5" spreadMethod="pad" gradientUnits="objectBoundingBox" gradientTransform="translate(0.5 0.5)"><stop id="erKH71O6Vve14-fill-0" offset="51%" stop-color="rgba(11,110,79,0.95)"/><stop id="erKH71O6Vve14-fill-1" offset="97%" stop-color="#1b5859"/></radialGradient><radialGradient id="erKH71O6Vve15-fill" cx="0" cy="0" r="0.5" spreadMethod="pad" gradientUnits="objectBoundingBox" gradientTransform="translate(0.5 0.5)"><stop id="erKH71O6Vve15-fill-0" offset="0%" stop-color="#a1c181"/><stop id="erKH71O6Vve15-fill-1" offset="99%" stop-color="#04a777"/></radialGradient><radialGradient id="erKH71O6Vve16-fill" cx="0" cy="0" r="0.5" spreadMethod="pad" gradientUnits="objectBoundingBox" gradientTransform="translate(0.5 0.5)"><stop id="erKH71O6Vve16-fill-0" offset="0%" stop-color="#0b6e4f"/><stop id="erKH71O6Vve16-fill-1" offset="100%" stop-color="#1b5859"/></radialGradient></defs><g transform="matrix(.997564 0.069756-.069756 0.997564 5.636383-6.055868)"><g transform="matrix(.743145 0.669131-.630184 0.778212 82.697397-40.375382)"><ellipse rx="30" ry="30" transform="matrix(1.114139 0.664148-1.01665 0.29152 68 85)" fill="url(#erKH71O6Vve4-fill)" stroke-linejoin="round"/><polygon points="0,-17.799226 16.92807,-5.500263 10.462123,14.399876 -10.462123,14.399876 -16.92807,-5.500263 0,-17.799226" transform="matrix(-.848048-.529919 0.559534-.829543 108 101)" fill="url(#erKH71O6Vve5-fill)" stroke-width="0"/></g><g transform="matrix(.190809 0.981627-.971627 0.242254 190.486957-20.346626)"><ellipse rx="30" ry="30" transform="matrix(1.114139 0.664148-1.01665 0.29152 68 85)" fill="url(#erKH71O6Vve7-fill)" stroke-linejoin="round"/><polygon points="0,-17.799226 16.92807,-5.500263 10.462123,14.399876 -10.462123,14.399876 -16.92807,-5.500263 0,-17.799226" transform="matrix(-.906308-.422618 0.454267-.89155 108 101)" fill="url(#erKH71O6Vve8-fill)" stroke-width="0"/></g></g><g transform="matrix(.087156 0.996195-.996195 0.087156 217.57614 10.044024)"><g transform="matrix(.798636 0.601815-.55996 0.830175 71.83738-38.826937)"><ellipse rx="30" ry="30" transform="matrix(1.114139 0.664148-1.01665 0.29152 68 85)" fill="url(#erKH71O6Vve11-fill)" stroke-linejoin="round"/><polygon points="0,-17.799226 16.92807,-5.500263 10.462123,14.399876 -10.462123,14.399876 -16.92807,-5.500263 0,-17.799226" transform="matrix(-.927184-.374607 0.406985-.914102 108 101)" fill="url(#erKH71O6Vve12-fill)" stroke-width="0"/></g><g transform="matrix(.422618 0.906308-.884159 0.470116 152.572215-36.000701)"><ellipse rx="30" ry="30" transform="matrix(1.114139 0.664148-1.01665 0.29152 68 85)" fill="url(#erKH71O6Vve14-fill)" stroke-linejoin="round"/><polygon points="0,-17.799226 16.92807,-5.500263 10.462123,14.399876 -10.462123,14.399876 -16.92807,-5.500263 0,-17.799226" transform="matrix(-.956305-.292372 0.325767-.946095 108 101)" fill="url(#erKH71O6Vve15-fill)" stroke-width="0"/></g></g><ellipse rx="14.227642" ry="14.563347" transform="matrix(1 0 0.034921 1 100.688582 135.563347)" fill="url(#erKH71O6Vve16-fill)" stroke-width="0"/></svg>
